<svg xmlns="http://www.w3.org/2000/svg" width="1333.333" height="1333.333" version="1.0" viewBox="0 0 1000 1000"><path d="M402.8 24.2c-.2 3-.4 5.7-1.3 15.3-.4 4.4-.9 10.5-1.1 13.5-.8 10.3-1.2 15.5-1.3 15.5s-.4 2.5-.6 5.5c-.5 7.1-1.4 19-2 26-.3 3-.7 8-1 11-.2 3-.7 8-1 11-.2 3-.7 9.1-1 13.5s-.8 9.6-1 11.5c-.5 3.4-.9 8.2-2 23-.3 4.1-.8 10.2-1.1 13.5s-.7 8-.9 10.5c-.9 10.8-1.6 19.9-2 24.5-.2 2.7-.7 8.4-1.1 12.5s-.7 9-.8 10.7c0 1.8-.3 3.3-.6 3.3s-.5 2.6-.6 5.8c0 5.1-.7 14.5-1.9 25.7-.2 2.2-.6 7.6-.9 12s-.8 10-1 12.5c-.6 5.9-1.6 17.2-2.1 23.5-.2 2.7-.7 8.4-1 12.5s-.9 7.8-1.3 8.2-3.4 0-6.7-.8c-3.3-.9-8.9-2.2-12.5-3s-7.4-1.7-8.5-2-2.9-.7-4-.9c-2.3-.4-3-.6-15-3.4-4.9-1.2-10.6-2.6-12.5-3.1-3.3-.8-8.4-2-9.5-2.1-.2 0-1.9-.5-3.7-1s-6.4-1.7-10.3-2.5c-7-1.5-10.1-2.3-12-2.8-.5-.2-2.8-.6-5-1.1-2.2-.4-4.4-1-4.9-1.3-.6-.3-1.9-.7-3-.8-1.2-.1-4.8-.9-8.2-1.8-3.4-.8-7.2-1.7-8.5-2-2.3-.5-6.2-1.4-8.4-2-.5-.1-3.7-.9-7-1.6-3.3-.8-6.2-1.4-6.5-1.5s-3.2-.7-6.5-1.4-6.7-1.5-7.5-1.8c-.8-.2-1.5-.4-1.5-.4s-1.8-.4-4-1c-2.2-.5-5.1-1.2-6.5-1.5s-7.2-1.7-13-3.1-11.2-2.6-12-2.8-3.3-.8-5.5-1.3c-2.2-.6-5.1-1.3-6.5-1.6s-5.4-1.2-9-2.1-7.4-1.8-8.5-2-8.7-2-17-3.9c-8.2-2-15.9-3.8-17-4s-2.7-.7-3.5-1-2.6-.7-4-1c-4-.6-25.2-5.6-28.5-6.6-1.6-.5-4.2-1.1-5.8-1.4-1.5-.3-3.5-.7-4.5-1-.9-.3-3.3-.7-5.2-1l-3.5-.5-2.9 9.2c-1.6 5.1-3.1 9.6-3.2 10.2-.1.5-1.3 4.2-2.7 8.2s-2.2 7.4-1.9 7.7c.3.4.1.6-.5.6-.5 0-1 .6-1 1.2 0 1.1-7.1 23.8-9 28.8-.3.8-.7 1.9-.8 2.5-.2.5-1.2 3.7-2.3 7C31 360 17.3 403 17.1 404.2c-.1.7-1.5 4.6-3.7 10.3-.9 2.4-.8 2.2-1.8 6.5-.5 1.9-1.2 3.9-1.5 4.5-.4.5-1.8 4.6-3.1 9-1.2 4.4-2.7 9.1-3.3 10.5s-1.1 2.9-1.3 3.5c-.1.5-.7 2.5-1.3 4.3-1 3.3-1 3.3 4.2 5.6 7.4 3.3 11.1 4.9 11.7 5.1s.4.1 25 10.5c10.7 4.5 20.9 8.8 22.5 9.5 12.1 5.4 19.5 8.2 19.9 7.7.3-.3.6 0 .6.6 0 .7.4 1.2.9 1.2s2.2.5 3.8 1.2c1.5.6 3 1.2 3.3 1.3 1.7.6 4.8 1.9 18.2 7.8 3.1 1.4 5.9 2.3 6.2 1.9.3-.3.6 0 .6.6s1.4 1.3 3 1.7c1.7.4 4.3 1.3 5.8 2 7.8 3.7 14 6.5 14.6 6.5.4 0 2.8.9 5.4 2.1 6.3 2.8 8.9 3.9 23.2 9.9 4.1 1.7 8.9 3.8 10.5 4.5 1.7.7 5.4 2.3 8.4 3.5 3 1.1 7.3 2.9 9.5 3.9 2.3 1.1 7 3.1 10.6 4.5 3.6 1.5 7.3 3.1 8.3 3.7 1.5.8 3.3-.5 11-8 13.2-12.8 17.5-16.9 24.6-23.1 3.5-3 7.8-6.9 9.6-8.5 1.8-1.7 4.3-3.9 5.6-5 4.2-3.5 13.3-10.9 15.2-12.5 1.1-.8 2.4-2 3.1-2.6.9-.9 15.4-12 26.3-20.2 1.7-1.3 8.2-5.9 14.5-10.3 6.2-4.3 11.8-8.2 12.3-8.7 1.1-.9 26.6-17.2 29.2-18.7 1-.5 3.2-1.9 4.8-3.1 1.7-1.1 3.7-2.4 4.5-2.8s2.4-1.2 3.5-1.9 5.9-3.4 10.5-6.2c4.7-2.7 8.8-5.4 9.2-6 .4-.5.8-.6.8-.2s1.7-.4 3.7-1.8c2.1-1.4 4.3-2.5 5-2.5s1.3-.5 1.3-1c0-.6.6-1 1.3-1s2.9-1.1 4.9-2.5 4.4-2.5 5.2-2.5 1.6-.4 1.8-.9c.4-1 35-18.6 36.1-18.3.4.1.7-.3.7-.8 0-.6.4-1 .9-1s6.6-2.7 13.6-6 13.3-6 14.1-6 1.4-.5 1.4-1c0-.6.6-1 1.3-1 .8 0 2.7-.6 4.3-1.4 6.3-3.1 25-10.9 26.2-10.9.6 0 1.2-.4 1.2-.9 0-.4.7-.8 1.5-.8s3.9-1.1 6.9-2.5 5.7-2.5 6-2.5c.2 0 1.7-.5 3.3-1.2 1.5-.6 3-1.2 3.3-1.3.6-.2 5-1.9 9.5-3.8 1.7-.6 3.3-1.2 3.8-1.3.4-.1.9-.3 1.2-.4s.8-.3 1.3-.5c.4-.1 2.1-.7 3.7-1.4 1.7-.7 5.3-2.1 8-3.1 6.8-2.4 32.7-11.7 39.5-14.1 3-1.1 6.1-2.1 6.8-2.1 1.1-.1 1.2-2 .8-8.7-.3-4.7-.8-10.2-1-12.1-.3-1.9-.8-7.6-1.1-12.5-1.3-18-1.6-21.1-2.1-26-.5-5.8-1.3-14.5-1.9-23-.2-3.3-.7-8.7-1-12-.4-3.3-.7-8.4-.8-11.3-.1-2.8-.4-5.2-.7-5.2s-.6-3-.7-6.8c-.2-3.7-.5-9-.7-11.7-.3-2.8-.8-8.2-1.1-12-.3-3.9-.7-9.5-1-12.5-.2-3-.7-8.2-.9-11.5-.3-3.3-.8-8.7-1.1-12-.5-5.9-.9-10.5-2-23.5-.8-9.6-1.4-16.9-1.9-22-.5-5.3-1.7-20.6-2.2-27-.1-2.5-.3-4.5-.4-4.5s-1.1-13.1-1.3-18.3c-.1-1.7-.6-3.2-1.1-3.2-.4 0-.3-.6.3-1.3.6-.8.8-1.6.5-1.9-.6-.7-1.1-4.8-1.3-10.6L597 22H403l-.2 2.2zM934.5 273c-4.6.7-7.5 1.1-19 2.5-2.2.2-5.1.7-6.4 1-1.4.2-4.7.7-7.5 1s-5.8.8-6.6 1-3.3.7-5.5 1c-8.7 1.3-14 2.2-14 2.5 0 .1-1.6.3-3.5.5-1.9.3-4.6.7-6 1s-4.1.8-6 1.1-5.3.9-7.5 1.4-5.3 1.1-7 1.4c-3.6.7-5.6 1.1-11.4 2.5-2.5.5-4.8.8-5.2.5-.4-.2-1 0-1.3.5-.3.4-2.5 1.2-4.8 1.6-2.4.4-4.7.9-5.3 1.1-2 .6-7 1.6-8.2 1.7-.7 0-1.3.4-1.3.9s-.4.7-.8.4c-.8-.5-20.5 4.4-34.2 8.4-3.6 1.1-7.4 2.1-8.5 2.3s-2.7.7-3.5 1c-3.3 1.2-12.6 4.1-14 4.2-1.4.2-2.2.4-6.5 2.1-1.1.4-2.4.8-3 1-1.9.4-23 7.4-24.5 8.1-1.9.8-1.9.8-5.5 1.8-1.6.4-3.4 1-4 1.4-.5.3-1.4.6-2 .7-.8.2-12 4.3-19.5 7.1-.8.4-1.8.7-2.2.7-.3.1-1 .4-1.4.8-.4.5-1.6.8-2.6.8s-1.8.5-1.8 1c0 .6-.3.9-.7.8-1.2-.4-16.3 5.4-16.9 6.3-.3.5-1.2.9-2 .9-1.3 0-7 2.3-23.2 9.6-2.9 1.3-5.4 2.4-5.6 2.4-.3 0-5.8 2.5-12.3 5.6s-15.6 7.4-20.3 9.6-8.7 4-8.9 3.8c-.2-.1-.7.2-1 .7-.9 1.3-4.9 3.3-6.5 3.3-.8 0-1.6.4-1.8.8-.2.6-14.6 8.4-23.5 12.6-1.3.6-2.3 1.5-2.3 1.9 0 .5-.4.6-.9.3s-1.4.1-2.1.9-1.6 1.5-2.1 1.5c-2 0-58.6 33.8-63.6 38-.7.5-1.5 1-1.8 1-.4 0-2.1 1.1-3.9 2.5s-3.8 2.5-4.4 2.5c-.7 0-1.2.3-1.2.8 0 .4-2.5 2.2-5.5 4s-5.5 3.8-5.5 4.4-.3.8-.6.5c-.4-.4-2.3.6-4.3 2.1s-4.9 3.6-6.6 4.7c-1.6 1-3.8 2.7-4.9 3.7s-2.5 1.8-3.2 1.8c-.6 0-1.4.7-1.8 1.5-.3.8-1.2 1.5-2 1.5s-1.6.3-1.8.8c-.1.4-2.8 2.5-5.8 4.7s-6.1 4.5-6.7 5.1c-.7.7-2.8 2.2-4.8 3.4-1.9 1.2-3.5 2.5-3.5 3s-.6 1-1.4 1.2c-.7.2-2.8 1.5-4.7 3.1-1.9 1.5-8.4 6.7-14.5 11.6-10.5 8.4-12.7 10.2-17.5 14.3-1.1.9-3.8 3.1-5.9 4.8-2.2 1.8-5 4.2-6.3 5.3-1.3 1.2-4.9 4.4-8.1 7.2-3.2 2.7-7.5 6.6-9.6 8.5s-8 7.3-13.1 12c-8.5 7.7-54 53-53.3 53 .2 0-1.3 1.8-3.4 3.9C264.6 620 260 625 260 625.4c0 .3-1.2 1.7-2.7 3.3-2.4 2.4-5.8 6.3-15.3 17.3-2 2.3-8 9.6-10.2 12.4-1 1.1-2.4 2.8-3.1 3.6-.8.8-4.7 5.8-8.8 11-4 5.2-7.6 9.7-7.9 10s-1.8 2.3-3.5 4.5c-1.6 2.2-3.1 4.2-3.4 4.5-.4.3-1.8 2.3-3.3 4.5s-3.9 5.3-5.3 6.9-2.5 3.2-2.5 3.5-1 1.8-2.3 3.3c-1.2 1.4-5.8 7.9-10.2 14.4-4.4 6.4-9.5 13.7-11.2 16.1-1.8 2.3-3.1 4.3-2.8 4.3s-.4.9-1.5 2-2 2.6-2 3.4-.3 1.6-.7 1.8c-1.3.5-25.6 38.7-27 42.4-.4 1-1.3 2.5-2 3.4-.7.8-1.2 1.8-1.1 2.1.2.4-.4 1.5-1.3 2.5-.9 1.1-3.4 5-5.4 8.9-2.1 3.8-4.1 7.2-4.4 7.5s-1.7 2.7-3 5.5c-1.4 2.7-3.3 6.1-4.2 7.6-1 1.4-1.5 3-1.1 3.5.7 1.1 10 7.4 10.8 7.4.3 0 1 .5 1.7 1 .7.6 4.8 3.4 9.2 6.2 8.3 5.2 10 6.3 29.8 19.2 6.5 4.2 12 7.6 12.3 7.6s1.4.9 2.6 2 2.8 2 3.5 2 1.3.4 1.3.9.8 1.1 1.7 1.4c1 .4 5.9 3.4 10.8 6.7 5 3.3 9.7 6.3 10.5 6.7s2 1.1 2.5 1.6c.6.4 5.5 3.7 11 7.2s10.5 6.7 11 7.2c.6.5 3.4 2.2 6.2 3.9 2.9 1.6 5.3 3.2 5.3 3.6 0 .5.5.8 1.1.8s3.6 1.7 6.7 3.9c3.2 2.1 8 5.2 10.7 6.9 2.8 1.7 5.5 3.5 6 3.9.6.5 5.3 3.5 10.5 6.7 5.2 3.3 9.7 6.2 10 6.5.3.4 1.4 1.1 2.5 1.8 9.1 5.3 20.5 12.9 20.5 13.5 0 .5.6.8 1.3.8 1.1 0 7.7 4.1 12.2 7.5 2.5 1.9 3.4 1.9 4.2-.3.3-.9 1.2-2.4 1.9-3.2s1.3-2 1.4-2.5c.1-1.1 5.2-11.7 6-12.5.3-.3 1.6-2.8 3-5.5 1.4-2.8 2.9-5.3 3.5-5.7.5-.4.6-.8.1-.8s-.4-.6.2-1.2c.5-.7 2.2-3.4 3.6-6 7.4-13.5 10.9-19.6 19.8-34.5 2.6-4.3 5.5-9.1 6.5-10.8 1-1.6 2.1-3.4 2.6-4 .4-.5 3.3-5.1 6.5-10 3.1-5 6.5-9.9 7.4-10.9 1-1.1 1.8-2.5 1.8-3.1 0-.7.9-2 2-3s2-2.4 2-3.1.3-1.4.8-1.6c.4-.2 2-2.3 3.7-4.8 1.6-2.5 3.2-4.7 3.5-5s1.9-2.5 3.5-5c1.7-2.4 3.7-5.2 4.5-6.1s4.4-5.7 8-10.7 6.8-9.2 7.3-9.2c.4 0 .7-.6.7-1.4s.3-1.6.8-1.8c.4-.2 5.2-5.9 10.7-12.8 5.5-6.8 10.7-13.2 11.6-14 .8-.9 2.2-2.5 3-3.7 1.3-1.9 9.2-11.1 13.4-15.7 1.1-1.2 5.2-5.8 9-10.1 17.6-19.7 60.5-62.5 62.8-62.5.4 0 .5-.5.2-1-.3-.6-.2-1 .3-1s2.2-1.2 3.8-2.6c8.4-7.7 11.5-10.4 17.9-15.9 3.9-3.3 7.5-6.4 8.1-7 .6-.5 2.6-2.2 4.5-3.7 1.9-1.4 4.5-3.6 5.9-4.8s3.8-3.1 5.4-4.3 3.9-3.1 5-4.2c1.2-1.1 5.1-4.1 8.6-6.7 3.6-2.6 7.4-5.6 8.6-6.5 1.1-1 4.8-3.8 8.3-6.3s7.6-5.5 9.1-6.7c1.5-1.3 3.3-2.3 3.9-2.3s1.1-.4 1.1-.9 1.7-2 3.8-3.2c2-1.3 3.9-2.7 4-3.1.2-.4.8-.8 1.4-.8.5 0 1.6-.6 2.3-1.3 3.2-2.8 4.5-3.7 5.2-3.7.4 0 2.1-1.1 3.7-2.5s3.3-2.5 3.7-2.5 1.4-.6 2.1-1.3c1.8-1.7 6.1-4.4 7.2-4.5.5 0 1.2-.4 1.5-.9s3.1-2.4 6.1-4.3 5.7-3.7 6-4 1.9-1.2 3.5-2c1.7-.8 3.2-1.8 3.5-2.1.5-.7 1.8-1.5 17.2-10.4 5.7-3.3 10.9-6.5 11.6-7.2.8-.7 1.8-1.1 2.3-.8.5.4.9.2.9-.2 0-.5 1.2-1.4 2.8-2.1 1.5-.6 6.3-3.2 10.7-5.7 7.4-4.1 50-25.5 60.5-30.3 8.6-3.9 13.5-6 16-6.7 1.4-.4 2.7-1.1 3-1.4.5-.6 20.2-8.9 22.5-9.5.6-.2 2.4-.9 4-1.5 1.7-.7 3.5-1.4 4-1.5.6-.2 2.4-.9 4-1.6 3.5-1.4 19.9-7.4 26.5-9.6 2.5-.8 5.4-1.9 6.5-2.4 2.4-1 18.2-6.2 19-6.1.2 0 2.4-.7 4.7-1.5 4.7-1.7 7.7-2.5 9.6-2.6.6-.1 1.2-.4 1.2-.8 0-.3.8-.6 1.8-.7.9-.1 8.2-2 16.2-4.3 15.6-4.4 17.2-4.8 21-5.6 1.4-.3 3.4-.8 4.5-1.1 1.1-.4 2.5-.8 3-.9 1.4-.3 5.6-1.2 8.3-1.8 1.3-.3 3.1-.7 4-1s2.8-.7 4.2-1c4.1-.7 21.4-4.6 22.8-5.1 1-.4.9-1.2-.2-4-.8-1.9-1.5-3.9-1.5-4.3-.1-.7-11.8-37.6-12.8-40.2-.3-.8-.7-2-.9-2.5-.1-.6-.9-2.9-1.8-5.3-.8-2.3-1.3-4.2-.9-4.2.3 0 .1-.6-.5-1.3-.6-.6-1.1-1.5-1.1-1.9-.1-.4-.3-1.3-.6-2-.2-.7-2.5-8.1-5.1-16.3-2.6-8.3-5.3-16.4-6-18-1-2.4-2.9-8.5-3.9-12.5-.1-.3-2.3-7-4.9-15s-4.9-15.3-5.1-16.3c-.2-.9-.7-2.2-1-2.7s-.8-1.8-1-2.7c-.2-1-1.5-5.2-3-9.3-1.4-4.1-2.7-8-2.9-8.5-.9-3.4-5.8-18.5-5.9-18.4s-2.4.5-5.2.9z"/><path d="M714 608.7c-.8.3-2.5 1.5-3.7 2.6-1.3 1.1-2.3 1.7-2.3 1.4 0-.4-.8 0-1.7.8-1 .7-5.4 3.9-9.8 7.1-6.8 4.7-19.1 14.3-23.1 17.9-.6.5-3.8 3.2-7 6-11.9 10.2-40.8 39.9-50.4 51.8-1.4 1.7-3.9 4.7-5.5 6.7-1.7 1.9-4.6 5.5-6.5 8s-3.9 4.8-4.5 5.2c-.6.5-.6.8 0 .8s.5.4-.2.8c-1.9 1.2-12.8 16.6-20.6 29.2-4 6.4-7.8 12.4-8.4 13.5-2.2 3.5-8.7 15.8-10.7 20.5-1.1 2.5-2.2 4.7-2.6 5-.3.3-.7 1.2-.9 2s-.6 2.3-.8 3.2c-.3 1 0 1.8.6 1.8s1.1.6 1.1 1.2c0 .7 2.2 3.6 4.8 6.4 10 11 15.7 17.7 16 19 .2.8.7 1.4 1.1 1.4s3.7 3.5 7.3 7.7c6.8 8 7.6 9 15.6 18.2 5.1 5.8 6.8 7.8 11 12.9 1.5 1.8 4.1 4.7 5.7 6.6 1.7 1.8 4.9 5.5 7.2 8.2s5.1 6 6.3 7.4 3.6 4.2 5.3 6.4c1.8 2.1 4.1 4.8 5.3 6 1.1 1.1 4.7 5.2 8 9.1 3.2 3.8 6.1 7.2 6.4 7.5s3 3.4 6 7 6 7 6.5 7.6c.6.6 3 3.5 5.5 6.4s5 5.8 5.5 6.4c.9 1 15.4 17.9 21.5 25 1.4 1.6 4 4.5 5.7 6.5 1.8 2 3.3 4 3.3 4.4 0 .8 8.4-4.6 10.8-7 .8-.8 2.7-2 4.3-2.8 1.6-.9 2.9-1.9 2.9-2.3s1.5-1.6 3.3-2.7c1.7-1 3.7-2.3 4.2-2.7.6-.5 3.9-3 7.5-5.6 3.6-2.5 6.7-4.9 7-5.2s2.5-1.9 5-3.5 4.7-3.2 5-3.5 7-5.3 15-11c8-5.8 15-10.8 15.5-11.3.9-.6 7.2-5.3 14-10.1 1.1-.8 11.1-8.1 22.3-16.3 11.1-8.1 21-15.3 21.9-15.8 1-.6 2.2-1.5 2.9-2 .6-.6 2.4-1.9 4-3 1.5-1.1 3.9-2.9 5.3-4.1s3.7-2.7 5-3.4c1.3-.6 2-1.5 1.5-1.9-1.3-.9-11.4-17.8-11.4-19 0-.5-.3-1.1-.7-1.3-.5-.2-2.6-3.2-4.7-6.8-2.2-3.6-5.1-8.3-6.5-10.5s-2.5-4.3-2.6-4.7c0-.3-1-1.8-2.2-3.1-1.2-1.4-1.8-2.8-1.5-3.2.4-.3 0-1-.8-1.5s-1.5-1.3-1.5-1.7c-.1-.4-1.3-2.7-2.8-5.1s-3.3-5.4-3.9-6.8c-.6-1.3-1.5-2.4-2-2.4-.4 0-.8-.4-.8-.9s-2.2-4.6-5-9c-2.7-4.4-5-8.3-5-8.6s-1.3-2.4-3-4.7c-1.6-2.2-3-4.7-3-5.5 0-.7-.4-1.3-1-1.3-.5 0-1-.7-1-1.5s-.4-1.5-1-1.5c-.5 0-1-.4-1-.8 0-.7-4.2-8-12.7-22-1.3-2-3.9-6.4-5.8-9.7-4.8-8-5.5-9.3-8.7-14.2-1.6-2.3-2.8-4.4-2.8-4.7s-1.3-2.5-3-4.9c-1.6-2.5-3-5-3-5.6s-.4-1.1-.9-1.1-1.2-1.1-1.5-2.5c-.4-1.4-1.1-2.5-1.6-2.5-.6 0-1-.5-1-1.1s-2-4.2-4.5-8c-2.4-3.8-5.4-8.6-6.5-10.6-2.3-4.4-4.3-7.6-5-8.3-.3-.3-1.6-2.5-3-5-2.5-4.7-6.3-10.7-7.9-12.6-.6-.7-.7-1.5-.4-1.8.4-.3.1-.6-.5-.6-.7 0-1.2-.5-1.2-1 0-.6-1.8-3.8-4-7.1s-4-6.7-4-7.5-.4-1.4-.9-1.4-1.6-1.5-2.5-3.3c-.9-1.7-2.6-4.6-3.6-6.2-1.1-1.7-2.9-4.7-4-6.8-1.1-2-2.1-3.7-2.3-3.6-.1 0-.9.3-1.7.6z"/></svg>