<svg xmlns="http://www.w3.org/2000/svg" viewBox="0 -0.024 27.577 28.018"><g xmlns="http://www.w3.org/2000/svg" mask="url(#mask0_2837_109)"><path fill="url(#paint1_linear_2837_109)" d="M26.514 10.762c.586 0 1.063-.484 1.063-1.08V5.925c0-3.28-2.626-5.949-5.855-5.949H5.858C2.629-.024.003 2.645.003 5.926v8.061c0 .596.476 1.08 1.063 1.08H8.37l2.64 6.38a1.05 1.05 0 0 0 1.054.66c.456-.032.838-.357.953-.806l2.81-10.994 1.693 4.098c.165.401.55.66.98.66h6.948v6.98c0 2.09-1.673 3.79-3.728 3.79H5.854c-2.055 0-3.728-1.7-3.728-3.79v-3.74c0-.596-.477-1.08-1.063-1.08-.587 0-1.063.484-1.063 1.08v3.74c0 3.281 2.626 5.95 5.854 5.95H21.72c3.228 0 5.854-2.669 5.854-5.95v-8.06c0-.597-.477-1.08-1.063-1.08h-7.305l-2.639-6.38a1.068 1.068 0 0 0-1.055-.66 1.068 1.068 0 0 0-.953.805L11.75 17.661l-1.694-4.097a1.06 1.06 0 0 0-.979-.663H2.129v-6.98c0-2.09 1.672-3.79 3.728-3.79h15.866c2.055 0 3.728 1.7 3.728 3.79v3.756c0 .601.476 1.085 1.063 1.085Z"/></g></svg>