<svg xmlns="http://www.w3.org/2000/svg" width="1276" height="160" fill="none" viewBox="0 0 1276 160"><g clip-path="url(#a)"><path fill="#818E9B" d="M1197.19 0c46.88 0 78.35 36.755 78.35 79.45s-31.91 79.887-78.79 79.887c-46.88 0-78.35-36.749-78.35-79.448C1118.4 37.195 1150.31 0 1197.19 0Zm-161.32 2.646c34.77 0 57.66 18.48 57.66 49.074 0 33.45-27.72 50.614-60.51 50.614h-37.417v54.362h-17.386V2.646h57.653Zm-428.699-.003v16.064h-51.724v137.988h-17.606V18.707h-51.716V2.643h121.046Zm143.926.003v15.839h-93.972v52.602h84.066v15.85h-84.066v53.917h95.073v15.841H639.736V2.645h111.361Zm53.695 0 56.124 84.068 56.122-84.068h17.605v154.049h-17.392V31.915l-56.119 82.526h-.877l-56.119-82.307v124.561h-16.947V2.645h17.603Zm450.218 69.751h-60.51v15.017h60.51V72.397ZM1034.56 18.71h-38.957v67.782h38.067c25.53 0 42.26-13.645 42.26-34.107 0-22.233-16.5-33.675-41.37-33.675Z"/><path fill="#00C3A5" d="M392.617 0c46.869 0 78.345 36.755 78.345 79.45s-31.906 79.887-78.784 79.887c-46.879 0-78.349-36.749-78.349-79.448C313.829 37.195 345.74 0 392.617 0ZM168.578 2.64v88.47c0 33.235 17.612 51.945 47.095 51.945 28.396 0 46.442-17.171 46.442-50.839V2.64H279.5v88.25c0 44.9-25.748 68.229-64.262 68.229-38.076 0-64.044-23.329-64.044-66.902V2.64h17.384Zm-47.532.003v16.064H69.323v137.988H51.716V18.707H0V2.643h121.046Zm279.693 18.058h-15.016v60.51h15.016V20.7Z"/></g><defs><clipPath id="a"><path fill="#fff" d="M0 0h1275.82v160H0z"/></clipPath></defs></svg>