<svg xmlns="http://www.w3.org/2000/svg" width="584" height="465" fill="none" viewBox="0 0 584 465"><path fill="#00C3A5" fill-rule="evenodd" d="M116.638 221.759C104.875 214.5 89.704 212 75.902 212c-20.374 0-39.92 7.842-54.378 24.382C7.174 252.922 0 275.925 0 305.39c0 31.217 7.12 55.818 21.36 69.401C35.709 388.264 52.5 395 73.602 395c17.398 0 29.289-4.392 37.614-8.773C119.541 381.846 126.875 376 133 368c0 25.5-1.838 39.08-6 48.5-7.01 15.992-22.028 24.111-44.701 24.111-14.35 0-24.865-3.286-31.547-9.858-4.272-4.272-7.12-10.351-8.544-18.237H12.142c1.534 18.073 8.763 31.327 21.688 39.761C46.754 460.821 62.55 465 81.5 465c34.066 0 57.374-11.847 69.642-35.726 6.572-12.925 9.858-30.56 9.858-52.905V216h-28v21.609c-5.25-6.859-9.734-11.76-16.362-15.85Zm3.615 31.711c8.982 10.515 13.473 26.672 13.473 48.469 0 14.459-2.41 29.311-7.23 40.155-8.653 19.169-28.194 28.753-49.444 28.753-13.582 0-26.556-5.148-34.662-15.444-7.996-10.406-11.994-27.723-11.994-47.549 0-16.868 1.845-30.578 6.08-40.911 8.274-20.193 24.036-28.819 44.848-28.819 13.911 0 29.947 4.83 38.929 15.346ZM275 216h-28v245h28v-93c5 8 13.897 15.006 19.155 18.292 8.982 5.805 20.1 8.708 33.354 8.708 16.868 0 31.656-5.203 44.362-15.609C391.916 362.961 402 337.155 402 298.817c0-28.37-7.017-50.167-20.928-65.393C367.161 218.089 350.237 212 330.302 212c-13.473 0-25.193 3.286-35.161 9.858C288.131 226.24 280.5 232.5 275 241v-25Zm82.905 135.952c-9.092 11.502-20.538 17.252-34.34 17.252-20.373 0-34.394-9.091-42.061-27.274-4.053-9.53-6.08-19.508-6.08-33.09 0-16.869 2.027-29.202 6.08-40.155 7.558-20.483 21.578-30.725 42.061-30.725 20.374 0 34.395 8.116 42.062 27.504 4.053 10.077 6.141 22.126 6.141 36.146 0 23.003-4.662 38.732-13.863 50.342ZM502 212c-24.5 0-44.749 8.67-59.571 25.52C427.919 254.016 420 276.15 420 303.499h.006l-.006.002c0 27.349 7.919 49.483 22.429 65.979C457.251 386.33 477.5 395 502 395s44.749-8.67 59.571-25.52C576.081 352.984 584 330.85 584 303.501l-.005-.002H584c0-27.349-7.919-49.483-22.429-65.979C546.749 220.67 526.5 212 502 212Zm-51.687 91.501-.006-.002h.006c0-17.9 4.389-33.466 12.273-46.358 8.193-13.4 21.414-20.099 39.414-20.099s31.221 6.699 39.414 20.099c7.884 12.892 12.273 28.458 12.273 46.358h.005l-.005.002c0 17.9-4.389 33.466-12.273 46.358-8.193 13.4-21.414 20.099-39.414 20.099s-31.221-6.699-39.414-20.099c-7.884-12.892-12.273-28.458-12.273-46.358Z" clip-rule="evenodd"/><path fill="#00C3A5" d="M189 216h30v175h-30V216Zm30.911-48c0 8.862-7.138 16-16 16-8.861 0-16-7.138-16-16s7.2-16 16-16 16 7.138 16 16Z"/><path fill="#00C3A5" d="M219.189 16c0 8.862-7.2 16-16 16-8.862 0-16-7.2-16-16 0-8.862 7.138-16 16-16 8.8 0 16 7.2 16 16Z" opacity=".4"/><path fill="#00C3A5" d="M296 91.81c0 8.862-7.2 16-16 16-8.862 0-16-7.2-16-16s7.2-16 16-16 16 7.138 16 16Z" opacity=".7"/><path fill="#00C3A5" d="M144 91.75c0 8.861-7.186 16-16.031 16-8.844 0-15.969-7.139-15.969-16 0-8.862 7.186-16 15.969-16 8.845-.062 16.031 7.138 16.031 16Z" opacity=".15"/><path fill="#00C3A5" d="M154.434 129.965c0 8.862-7.2 16-16 16-8.862 0-16-7.2-16-16s7.2-16 16-16 16 7.139 16 16Z" opacity=".1"/><path fill="#00C3A5" d="M154.313 54.136c0 8.862-7.2 16-16 16-8.861 0-16-7.138-16-16 0-8.861 7.2-16 16-16 8.862 0 16 7.139 16 16Z" opacity=".2"/><path fill="#00C3A5" d="M285.449 129.664c0 8.861-7.138 16-16 16-8.861 0-16-7.2-16-16s7.139-16 16-16c8.862 0 16 7.2 16 16Z" opacity=".8"/><path fill="#00C3A5" d="M285.509 53.866c0 8.845-7.2 15.97-16 15.97-8.862 0-16-7.125-16-15.97 0-8.844 7.2-16.03 16-16.03s16 7.186 16 16.03Z" opacity=".6"/><path fill="#00C3A5" d="M181.937 157.468c0 8.861-7.2 16-16 16-8.861 0-16-7.2-16-16s7.2-16 16-16c8.8-.061 16 7.139 16 16Z" opacity=".05"/><path fill="#00C3A5" d="M181.997 26.393c0 8.862-7.187 16-16.031 16-8.845 0-15.969-7.2-15.969-16 0-8.861 7.186-16 15.969-16a15.966 15.966 0 0 1 16.031 16Z" opacity=".3"/><path fill="#00C3A5" d="M257.766 157.468c0 8.861-7.138 16-16 16-8.861 0-16-7.2-16-16 0-8.862 7.139-16 16-16 8.862 0 16 7.138 16 16Z" opacity=".9"/><path fill="#00C3A5" d="M257.886 26.332c0 8.862-7.138 16-16 16-8.861 0-16-7.2-16-16 0-8.861 7.139-16 16-16 8.862 0 16 7.139 16 16Z" opacity=".5"/></svg>