<svg xmlns="http://www.w3.org/2000/svg" width="92" height="21" fill="none" viewBox="0 0 92 21"><g fill="#00C3A5" clip-path="url(#a)"><path d="M31.141 4.377a1.353 1.353 0 1 0 0-2.707 1.353 1.353 0 0 0 0 2.707Zm-1.248 1.161v9.637c0 1.79-.476 2.37-1.378 2.372-.239 0-.517-.022-.712-.066l-.195 1.917c.278.063.78.107 1.083.107 2.975 0 3.62-2.048 3.62-4.891V5.538h-2.418Z"/><path fill-rule="evenodd" d="M76.377 5.533c-3.038 0-4.611 2.307-4.611 5.56v.07c0 3.492 1.68 5.453 4.157 5.453 1.315 0 2.373-.522 3.136-1.359h.022l.227 1.047h1.968V1.672l-2.404.313V6.29c-.603-.463-1.54-.758-2.495-.758Zm.302 8.986c-1.809 0-2.414-1.53-2.414-3.405 0-1.853.625-3.426 2.544-3.426.826 0 1.567.29 2.063.732v5.135c-.537.547-1.344.964-2.193.964Zm-15.567-3.456v.044c0 3.794 1.8 5.509 5.226 5.506 1.178 0 2.104-.102 3.194-.273v-1.997c-.97.127-2.016.232-3.13.232-1.761 0-2.62-.878-2.79-2.351h6.622c.042-.393.069-.924.069-1.31 0-3.643-1.392-5.379-4.392-5.379-3.236 0-4.799 2.314-4.799 5.528Zm2.463-.614h4.306c0-1.636-.426-2.926-2.036-2.926-1.67 0-2.226 1.377-2.27 2.926ZM35.228 5.65a39.228 39.228 0 0 1 3.243-.112c2.556 0 4.08.987 4.085 3.784v6.984h-2.144l-.107-1.046h-.027c-.734.79-1.802 1.253-3.17 1.253-1.812 0-3.25-1.173-3.25-3.497 0-2.16 1.802-4.174 6.313-3.216v-.629c0-1.246-.732-1.595-2.17-1.595-.886 0-1.634.059-2.773.156V5.65Zm4.94 5.801c-1.911-.488-3.823.11-3.823 1.587 0 .98.651 1.556 1.622 1.515a3.72 3.72 0 0 0 2.201-.903v-2.199ZM84.207 5.65a39.228 39.228 0 0 1 3.243-.112c2.555 0 4.082.987 4.084 3.784v6.984h-2.143l-.107-1.046h-.027c-.734.79-1.802 1.253-3.17 1.253-1.812 0-3.25-1.173-3.25-3.497 0-2.16 1.801-4.174 6.313-3.216v-.629c0-1.246-.732-1.595-2.17-1.595-.886 0-1.634.059-2.773.156V5.65Zm4.94 5.801c-1.912-.488-3.823.11-3.823 1.587 0 .98.65 1.556 1.621 1.515a3.72 3.72 0 0 0 2.202-.903v-2.199Z" clip-rule="evenodd"/><path d="M52.858 7.237c-.483-1.126-1.446-1.7-2.994-1.7-1.495 0-2.51.825-3.085 1.725h-.03c-.04-.373-.138-1.412-.138-1.412h-2.075V16.3h2.384v-5.496c0-1.663 1-2.987 2.202-3.078 1.242-.092 1.732.576 1.732 2.275v6.3h2.385v-5.497c0-1.788 1-3.002 2.201-3.078 1.237-.078 1.732.576 1.732 2.275v6.3h2.385v-6.79c0-2.621-.998-3.974-3.375-3.974-1.441 0-2.629.768-3.324 1.7Z"/><path fill-rule="evenodd" d="M1.317 5.477 8.249 7.11 8.847 0h4.25l.539 6.43c-2.439.837-3.875 1.505-5.518 2.514a17.389 17.389 0 0 0-3.304 2.614L0 9.527l1.317-4.05Zm5.9 15.416c2.834-5.78 8.248-10.061 14.734-11.34l-1.32-4.06c-7.868.888-14.564 5.658-18.146 12.357l4.733 3.043Zm4.958-4.002 3.448 4.009 3.438-2.497-3.355-5.552c-1.517.931-3.002 2.745-3.53 4.04Z" clip-rule="evenodd"/></g><defs><clipPath id="a"><path fill="#fff" d="M0 0h91.542v20.9H0z"/></clipPath></defs></svg>