<svg xmlns="http://www.w3.org/2000/svg" width="288" height="63" fill="none" viewBox="0 0 288 63"><path fill="#4C94F7" d="M206.311 32.859h-18.56l-2.95 15.03h20.94l-1.11 2.85h-23.47l7.33-37.55h23.42l-1.16 2.85h-19.72l-2.74 13.98h19.14l-1.11 2.85-.01-.01Zm37.12-.43c-.67 3.55-1.57 6.5-2.72 8.83-1.14 2.34-2.54 4.21-4.19 5.62-1.65 1.41-3.58 2.4-5.77 2.98-2.2.58-4.67.87-7.41.87h-11.18l7.33-37.55h10.65c4.89 0 8.45 1.01 10.68 3.03 2.23 2.02 3.35 5.16 3.35 9.41 0 1.02-.06 2.09-.18 3.22-.12 1.13-.31 2.32-.55 3.59h-.01Zm-21.41-16.4-6.22 31.85h7.91c2.43 0 4.54-.25 6.36-.76 1.81-.51 3.37-1.36 4.67-2.56 1.3-1.19 2.38-2.8 3.24-4.8.86-2 1.59-4.48 2.19-7.44.53-2.57.79-4.8.79-6.7 0-3.52-.89-5.99-2.66-7.44-1.78-1.44-4.54-2.16-8.31-2.16h-7.96l-.01.01Zm42.98 23.26-8.33-21.46-6.38 32.91h-3.01l7.33-37.55h3.27l8.86 23.05 17.88-23.05h3.22l-7.33 37.55h-3.01l6.28-32.38-16.24 20.94h-2.53l-.01-.01Z"/><path fill="#294460" d="m123.741 24.969-2.88 14.97c-.25 1.33-.55 2.42-.92 3.27-.37.86-.85 1.53-1.44 2.02s-1.34.83-2.22 1.02c-.89.19-1.96.29-3.22.29-1.67 0-2.94-.31-3.8-.94-.86-.63-1.28-1.73-1.28-3.3 0-.56.09-1.33.26-2.3l.84-4.54 4.44-22.18h-5.71l-15.76 21.73-7.54-21.73h-5.86l-7.23 37.28h5.39l5.6-28.8 6.34 18.17h5.03l12.57-17.43-1.69 8.56-1.81 8.94c-.11.52-.18 1.06-.24 1.6-.05.54-.08.97-.08 1.28 0 2.72.86 4.77 2.59 6.15 1.73 1.38 4.13 2.07 7.2 2.07 3.07 0 5.27-.73 6.81-2.2l-.21.89c-.59 2.58-1.49 4.39-2.7 5.42-1.2 1.03-2.98 1.54-5.31 1.54-1.5 0-2.91-.02-4.24-.05-1.33-.04-2.62-.09-3.87-.16l-1.78 4.66c.94.03 1.8.06 2.57.08.77.02 1.53.03 2.28.03h5.05c2.02 0 3.8-.23 5.31-.68 1.52-.45 2.82-1.16 3.9-2.12 1.08-.96 1.96-2.2 2.64-3.72.68-1.52 1.23-3.34 1.65-5.47l4.71-24.35h-5.39Zm38.03 7.27c-.66 3.63-1.61 6.62-2.83 8.98-1.22 2.36-2.71 4.21-4.45 5.58-1.75 1.36-3.73 2.3-5.94 2.83-2.22.52-4.65.79-7.3.79h-12.25l7.28-37.28h10.84c5.06 0 8.87 1.02 11.44 3.06 2.57 2.04 3.85 5.35 3.85 9.92 0 1.85-.21 3.89-.63 6.13l-.01-.01Zm-20.99-14.19-5.34 27.43h6.39c1.95 0 3.7-.15 5.24-.45 1.53-.3 2.88-.93 4.03-1.91 1.15-.98 2.14-2.36 2.96-4.14.82-1.78 1.51-4.17 2.07-7.17.42-2.23.63-4.15.63-5.76 0-1.61-.21-2.98-.63-4.03-.42-1.05-1.05-1.87-1.88-2.46-.84-.59-1.87-.99-3.09-1.2-1.22-.21-2.62-.31-4.19-.31h-6.19Zm35.15 9.74c-1.26 0-2.3.09-3.14.26-.84.18-1.54.52-2.12 1.02-.58.51-1.04 1.2-1.39 2.07-.35.87-.65 1.99-.89 3.35l-3.09 15.92h-5.39l3.14-16.39c.42-2.27 1-4.11 1.75-5.52.75-1.41 1.67-2.51 2.75-3.3s2.36-1.31 3.82-1.57c1.47-.26 3.14-.39 5.03-.39a41.072 41.072 0 0 1 4.08.16l-1.73 4.5c-.56-.03-1.07-.06-1.52-.08-.45-.02-.89-.03-1.31-.03h.01Z"/><path fill="#4C94F7" d="M47.28 2.669c-11.95-5.3-26.08-2.55-35.16 6.86-.32.33-.31.86.02 1.17.33.32.86.31 1.17-.02 8.6-8.9 21.99-11.5 33.3-6.49 7.23 3.21 12.78 9.03 15.62 16.41 2.85 7.38 2.65 15.42-.56 22.65-3.21 7.23-9.03 12.78-16.41 15.62-7.38 2.85-15.43 2.65-22.65-.56-11.19-4.95-18.2-16.41-17.57-28.6 1.15-.15 2.19-.72 2.92-1.63.75-.93 1.09-2.1.97-3.29a4.46 4.46 0 0 0-1.64-3.01c-.93-.76-2.1-1.09-3.29-.97a4.46 4.46 0 0 0-3.01 1.64 4.48 4.48 0 0 0 .68 6.3l.16.13c.47.35 1.01.59 1.56.73-.67 12.88 6.74 24.98 18.55 30.22.44.2.89.38 1.34.56 7.28 2.84 15.24 2.86 22.58.03 7.79-3.01 13.95-8.86 17.33-16.5 6.99-15.76-.15-34.27-15.91-41.25Zm-45.62 22.9c-.08-.75.14-1.49.61-2.07.47-.59 1.15-.95 1.9-1.04.71-.08 1.4.11 1.97.53.03.03.07.05.1.08.59.47.95 1.15 1.04 1.9.08.75-.14 1.49-.61 2.07-.47.59-1.15.95-1.9 1.04-.75.09-1.48-.14-2.07-.61-.59-.47-.95-1.15-1.04-1.9Z"/><path fill="#4C94F7" d="M44.79 36.159a4.087 4.087 0 0 0-3.94 4.22c.07 1.95 1.5 3.54 3.34 3.87-.01.07-.02.13-.02.2l.27 3.17a5.876 5.876 0 0 1-5.67 6.07 5.876 5.876 0 0 1-6.07-5.67l.03-9.63c1.16-.16 2.23-.69 3.08-1.53l9.64-9.59a9.349 9.349 0 0 0 2.76-6.66c0-2.52-.98-4.88-2.76-6.66a9.392 9.392 0 0 0-7.57-2.7 1.3 1.3 0 0 0-1.46-.53l-2.79.86c-.68.21-1.06.94-.85 1.62l.35 1.14c.21.68.94 1.06 1.62.85l2.79-.86c.55-.17.9-.68.9-1.23 2.07-.1 4.14.66 5.67 2.19a7.473 7.473 0 0 1 2.2 5.32c0 2.01-.78 3.9-2.2 5.32l-9.64 9.59a3.56 3.56 0 0 1-2.54 1.04h-.1c-.96 0-1.85-.37-2.52-1.03l-9.52-9.6a7.473 7.473 0 0 1-2.2-5.32c0-2.01.78-3.9 2.2-5.32 1.4-1.4 3.26-2.16 5.16-2.2 0 .55.35 1.07.9 1.24l2.79.86c.68.21 1.41-.17 1.62-.85l.35-1.14c.21-.68-.17-1.41-.85-1.62l-2.79-.86c-.55-.17-1.12.05-1.43.49-2.59-.12-5.18.83-7.09 2.74a9.349 9.349 0 0 0-2.76 6.66c0 2.52.98 4.88 2.76 6.65l9.52 9.6c.77.77 1.74 1.28 2.78 1.49l.09 9.74c.14 4.26 3.72 7.6 7.98 7.46 4.26-.14 7.6-3.72 7.46-7.98l-.27-3.17a.85.85 0 0 0-.04-.22 4.096 4.096 0 0 0 3.02-4.08 4.087 4.087 0 0 0-4.22-3.94h.02Zm.21 6.31a2.24 2.24 0 0 1-2.31-2.15c-.04-1.23.92-2.26 2.15-2.3a2.24 2.24 0 0 1 2.31 2.15 2.24 2.24 0 0 1-2.15 2.31v-.01Z"/><path fill="#4C94F7" d="M44.92 41.409a1.2 1.2 0 1 0 .001-2.4 1.2 1.2 0 0 0 0 2.4Z"/></svg>