<svg xmlns="http://www.w3.org/2000/svg" width="100" height="28" fill="none" viewBox="0 0 100 28"><g clip-path="url(#a)"><path fill="#052B3B" d="m40.091 6.652-.152.864c-.044.245-.13.442-.327.354-.524-.178-1.134-.311-1.547-.311-1.2 0-1.7.553-1.7 2.214v1.684h2.616c.217 0 .327.111.327.332v.998c0 .22-.11.333-.327.333h-2.616v9.01c0 .222-.11.334-.327.334h-1.285c-.218 0-.328-.112-.328-.333V13.12h-1.133c-.217 0-.327-.112-.327-.333v-.84l1.46-.376V9.424c0-2.171 1.069-3.565 3.14-3.565.696 0 1.395.154 2.222.465.152.064.349.152.304.328Zm8.599 9.522c-.132-2.126-.894-3.188-3.075-3.188-1.83 0-2.832.908-3.005 3.188h6.08Zm1.937 0v.021c0 .931-.349 1.506-1.482 1.506l-6.538.045c.173 2.459 1.569 3.257 3.66 3.212 1.351-.046 2.527-.708 3.202-1.24.176-.133.328 0 .459.22l.458.799c.086.178-.021.31-.197.42-.696.553-2.112 1.527-4.314 1.527-2.396 0-5.273-1.351-5.273-5.712 0-3.831 2.005-5.736 5.076-5.736 3.948 0 4.949 2.99 4.949 4.938Zm9.365 0c-.131-2.126-.893-3.188-3.074-3.188-1.83 0-2.833.908-3.006 3.188h6.08Zm1.937 0v.021c0 .931-.348 1.506-1.482 1.506l-6.537.045c.173 2.459 1.568 3.257 3.66 3.212 1.35-.046 2.526-.708 3.202-1.24.175-.133.327 0 .458.22l.458.799c.087.178-.02.31-.196.42-.697.553-2.113 1.527-4.315 1.527-2.395 0-5.273-1.351-5.273-5.712 0-3.831 2.006-5.736 5.077-5.736 3.945 0 4.948 2.99 4.948 4.938Zm9.211 2.903v-6.003a35.827 35.827 0 0 0-2.55-.088c-2.137 0-3.4 1.198-3.4 3.986 0 1.594.35 3.964 2.724 3.964 1.222 0 2.484-1.085 3.225-1.86Zm1.94-7.288v9.214c0 5.27-1.527 6.997-5.708 6.997-1.155 0-2.375-.311-3.05-.532-.152-.045-.349-.154-.307-.333l.152-.886c.045-.242.131-.42.328-.354.63.179 1.764.442 2.636.442 3.074 0 4.008-1.085 4.008-4.672v-.82c-.675.754-1.94 1.84-3.594 1.84-3.464 0-4.336-3.212-4.336-5.713 0-3.653 2.157-5.736 5.404-5.736 1.068 0 2.788.088 4.139.22.196.024.327.112.327.333Zm9.995 5.183c0-2.9-1.306-3.986-3.356-3.986-2.071 0-3.377 1.086-3.377 3.986 0 2.857 1.306 3.985 3.377 3.985 2.047 0 3.356-1.128 3.356-3.985Zm-8.718 0c0-4.164 2.244-5.736 5.36-5.736 3.094 0 5.338 1.705 5.338 5.736 0 3.698-2.244 5.712-5.339 5.712-3.113 0-5.36-2.014-5.36-5.712Zm25.621-5.31-3.673 10.714c-.069.183-.181.274-.383.274h-1.374c-.202 0-.317-.09-.382-.274l-1.802-5.335-1.801 5.335c-.068.183-.18.274-.382.274h-1.375c-.201 0-.316-.09-.382-.274l-3.673-10.714c-.068-.23.023-.389.27-.389h1.487c.204 0 .337.093.382.274l2.68 8.7 1.87-5.837-.924-2.748c-.068-.23.023-.389.27-.389h1.33c.201 0 .337.093.382.274l2.657 8.652 2.681-8.652c.045-.183.18-.274.382-.274h1.487c.252-.002.341.16.273.389Z"/><mask id="c" width="29" height="28" x="0" y="0" maskUnits="userSpaceOnUse" style="mask-type:alpha"><path fill="url(#b)" d="M28.166 0H0v28h28.166V0Z"/></mask><g mask="url(#c)"><path fill="url(#d)" d="M26.514 10.762c.586 0 1.063-.484 1.063-1.08V5.925c0-3.28-2.626-5.949-5.855-5.949H5.858C2.629-.024.003 2.645.003 5.926v8.061c0 .596.476 1.08 1.063 1.08H8.37l2.64 6.38a1.05 1.05 0 0 0 1.054.66c.456-.032.838-.357.953-.806l2.81-10.994 1.693 4.098c.165.401.55.66.98.66h6.948v6.98c0 2.09-1.673 3.79-3.728 3.79H5.854c-2.055 0-3.728-1.7-3.728-3.79v-3.74c0-.596-.477-1.08-1.063-1.08-.587 0-1.063.484-1.063 1.08v3.74c0 3.281 2.626 5.95 5.854 5.95H21.72c3.228 0 5.854-2.669 5.854-5.95v-8.06c0-.597-.477-1.08-1.063-1.08h-7.305l-2.639-6.38a1.068 1.068 0 0 0-1.055-.66 1.068 1.068 0 0 0-.953.805L11.75 17.661l-1.694-4.097a1.06 1.06 0 0 0-.979-.663H2.129v-6.98c0-2.09 1.672-3.79 3.728-3.79h15.866c2.055 0 3.728 1.7 3.728 3.79v3.756c0 .601.476 1.085 1.063 1.085Z"/></g></g><defs><linearGradient id="b" x1="27.429" x2=".318" y1=".695" y2="26.741" gradientUnits="userSpaceOnUse"><stop stop-color="#00A2E7"/><stop offset=".484" stop-color="#00C4AA"/><stop offset="1" stop-color="#00E176"/></linearGradient><linearGradient id="d" x1="26.023" x2="2.376" y1="1.556" y2="25.131" gradientUnits="userSpaceOnUse"><stop stop-color="#01A6E0"/><stop offset="1" stop-color="#01DD7D"/></linearGradient><clipPath id="a"><path fill="#fff" d="M0 0h100v28H0z"/></clipPath></defs></svg>