<svg xmlns="http://www.w3.org/2000/svg" width="81" height="38" fill="none" viewBox="0 0 81 38"><g clip-path="url(#a)"><path fill="#4591C1" d="M19.851 18.223c.11.11.259.21.422.3a6.611 6.611 0 0 1 1.301.616l-.746 2.131a4.114 4.114 0 0 0-.693-.345 14.596 14.596 0 0 0-1.026-.373 9.22 9.22 0 0 0-1.252-.307c-.452-.08-.91-.12-1.372-.12-.977 0-1.856.169-2.637.506a5.456 5.456 0 0 0-1.998 1.465c-.55.64-.973 1.417-1.266 2.331-.292.915-.44 1.941-.44 3.078 0 1.101.13 2.104.387 3.01.258.907.643 1.684 1.159 2.332a5.203 5.203 0 0 0 1.932 1.506c.772.355 1.674.533 2.704.533 1.19 0 2.176-.124 2.957-.373.782-.25 1.368-.471 1.759-.667l.666 2.132c-.124.089-.346.2-.666.333a8.99 8.99 0 0 1-1.2.387 15.27 15.27 0 0 1-3.756.453c-1.296 0-2.478-.213-3.543-.64a7.549 7.549 0 0 1-2.745-1.865c-.764-.816-1.355-1.825-1.772-3.024-.418-1.2-.626-2.571-.626-4.116 0-1.546.235-2.918.706-4.117a9.678 9.678 0 0 1 .977-1.882h-.2c-1.297 0-2.478-.212-3.544-.639a7.54 7.54 0 0 1-2.745-1.865c-.764-.817-1.355-1.825-1.772-3.024-.418-1.198-.626-2.571-.626-4.117 0-1.545.235-2.917.706-4.116.471-1.2 1.106-2.208 1.905-3.024a8.063 8.063 0 0 1 2.798-1.866 9.096 9.096 0 0 1 3.41-.64 12.187 12.187 0 0 1 3.664.534c.454.142.822.284 1.106.426.284.143.48.25.586.32l-.746 2.131a4.167 4.167 0 0 0-.693-.346 14.61 14.61 0 0 0-1.026-.373 9.215 9.215 0 0 0-1.252-.307c-.452-.08-.91-.12-1.372-.12-.976 0-1.856.169-2.637.506a5.467 5.467 0 0 0-1.998 1.465c-.55.64-.973 1.417-1.265 2.331-.294.915-.44 1.94-.44 3.078 0 1.101.129 2.104.386 3.01.258.907.644 1.684 1.16 2.332a5.211 5.211 0 0 0 1.931 1.506c.773.355 1.674.533 2.704.533 1.151 0 2.12-.1 2.898-.38.254-.133.516-.254.787-.363a9.096 9.096 0 0 1 3.41-.639c.271 0 .532.007.784.02a6.632 6.632 0 0 1-.058-.899V.487l2.459-.423v16.52c0 .405.034.74.105 1.005.07.264.185.475.343.634ZM26.202 5.13a1.59 1.59 0 0 1-1.132-.44c-.311-.294-.466-.688-.466-1.186 0-.497.155-.893.466-1.186.31-.293.688-.44 1.132-.44.444 0 .822.146 1.133.44.311.293.466.689.466 1.186s-.156.892-.466 1.186c-.312.293-.689.44-1.133.44Zm1.215 16.431.037-13.927h-2.478l.042 13.472-.057 12.35c0 1.314.317 2.282.95 2.904.634.622 1.708.95 3.222.987l.342-2.079a6.408 6.408 0 0 1-.976-.2 1.46 1.46 0 0 1-.634-.359 1.39 1.39 0 0 1-.343-.64 4.06 4.06 0 0 1-.106-1.012l.001-11.496ZM34.078 7.6a31.64 31.64 0 0 0-2.266.453v13.455h2.478V9.81c.089-.018.235-.044.44-.08.204-.035.435-.066.693-.093.257-.027.529-.049.812-.067.285-.018.56-.026.827-.026.657 0 1.208.084 1.652.253.444.17.8.44 1.066.813.266.372.456.86.572 1.465.116.603.174 1.332.174 2.185v7.247h2.478v-7.78c0-.941-.089-1.803-.266-2.585-.178-.78-.485-1.451-.92-2.011-.435-.559-1.017-.994-1.745-1.305-.728-.31-1.643-.466-2.745-.466-1.225 0-2.31.08-3.25.24Zm14.458-2.452a1.59 1.59 0 0 1-1.133-.44c-.31-.293-.466-.688-.466-1.186 0-.497.155-.892.466-1.186.311-.294.688-.44 1.133-.44.444 0 .821.146 1.132.44.311.294.467.689.467 1.186s-.157.892-.467 1.186c-.31.294-.687.44-1.132.44Zm1.253 16.36H47.31V7.652h2.478v13.856Z"/><path fill="#4591C1" fill-rule="evenodd" d="M57.547 20.868c1.065.427 2.247.64 3.543.64a15.1 15.1 0 0 0 2.078-.134c.63-.088 1.182-.192 1.657-.314v15.77c.728.177 1.54.297 2.438.359.897.062 1.719.093 2.465.093 1.51 0 2.895-.191 4.156-.573 1.262-.383 2.345-.96 3.251-1.732.906-.773 1.608-1.75 2.106-2.931.497-1.181.746-2.572.746-4.17 0-1.6-.25-2.989-.746-4.17-.498-1.182-1.2-2.16-2.106-2.931-.906-.773-1.989-1.35-3.25-1.732-1.262-.382-2.648-.573-4.157-.573-.746 0-1.568.031-2.465.093-.886.062-1.69.18-2.411.353a3.964 3.964 0 0 0-.387.074c-.8.188-1.945.252-3.135.252-1.03 0-1.932-.178-2.704-.533a5.203 5.203 0 0 1-1.932-1.506c-.516-.648-.901-1.425-1.159-2.331-.258-.907-.386-1.91-.386-3.011 0-1.137.146-2.163.44-3.078.292-.914.714-1.692 1.265-2.331a5.458 5.458 0 0 1 1.998-1.465c.78-.337 1.66-.506 2.637-.506.461 0 .92.04 1.372.12.454.08.87.183 1.253.307a14.5 14.5 0 0 1 1.026.373c.302.125.533.24.693.346l.746-2.131a6.466 6.466 0 0 0-.586-.32 7.608 7.608 0 0 0-1.106-.426 12.113 12.113 0 0 0-3.664-.533 9.096 9.096 0 0 0-3.41.64 8.063 8.063 0 0 0-2.798 1.865c-.8.816-1.434 1.824-1.905 3.023-.47 1.2-.706 2.572-.706 4.117 0 1.546.208 2.919.626 4.117.417 1.199 1.008 2.207 1.772 3.024a7.54 7.54 0 0 0 2.745 1.865Zm17.884 12.27c-1.208 1.253-3.038 1.879-5.49 1.879-.728 0-1.292-.01-1.69-.027-.4-.017-.68-.035-.84-.053V20.815c.16-.017.44-.036.84-.053.398-.019.962-.027 1.69-.027 2.452 0 4.282.626 5.49 1.878 1.207 1.252 1.812 3.007 1.812 5.263 0 2.255-.605 4.01-1.812 5.262Z" clip-rule="evenodd"/><path fill="#4591C1" d="M58.52 36.524c-.57.142-1.32.294-2.252.453-.932.16-2.012.24-3.237.24-1.066 0-1.963-.156-2.691-.466-.729-.311-1.315-.75-1.759-1.319-.444-.569-.763-1.24-.959-2.011-.196-.773-.294-1.63-.294-2.572v-7.78h2.479v7.247c0 1.688.266 2.895.8 3.624.532.729 1.428 1.092 2.69 1.092.266 0 .542-.009.827-.026.283-.018.55-.04.799-.067.249-.027.475-.053.679-.08.205-.028.35-.058.44-.093V23.068h2.477v13.456Z"/><path fill="#000" d="M37.366 24.08h-.028c-1.21.007-2.35.437-3.21 1.212-.75.675-1.212 1.54-1.335 2.477-1.926.055-3.214 1.975-3.214 3.77 0 2.001 1.629 3.641 3.67 3.744h.005a4.067 4.067 0 0 0 .373 0h.515v-1.69h-.893c-1.123-.076-1.965-.977-1.965-2.054 0-.543.215-1.165.566-1.608a.969.969 0 0 1 .282-.314.9.9 0 0 1 .207-.157c.093-.072.538-.268.678-.286a.852.852 0 0 0 .069-.02.556.556 0 0 1 .13-.03c.07-.014.25-.014.26-.014.06-.014.232.017.318.032a.873.873 0 0 0 .051.006l.13.026.03.007a.67.67 0 0 0 .033.002c.018.001.037.002.053.005a.124.124 0 0 0 .049-.026 1.91 1.91 0 0 0 .013-.186c0-.072.008-.142.022-.211.01-.41.537-1.587.671-1.74.12-.16.414-.46.422-.466.624-.447 1.286-.77 2.097-.773 1.371 0 2.518.83 2.81 1.935.036.102.154.686.142.843.018.105.033.31.02.433.037.042.091.008.132-.017l.018-.011.01-.005.09-.042c.258-.121.36-.169.822-.246.1-.014.208-.024.333-.026h.04c1.252 0 2.272 1.116 2.272 2.487 0 1.215-.82 2.23-1.9 2.445l-6.414.024.007 1.692 5.091.017c.29.011.588.013.888.013 2.224 0 4.033-1.88 4.033-4.192 0-2.312-1.784-4.192-3.977-4.192l-.056.001c-.61-1.662-2.338-2.865-4.36-2.865Zm-3.331 9.432-.026.005.026-.005Z"/></g><defs><clipPath id="a"><path fill="#fff" d="M.1 0h79.935v37.4H.1z"/></clipPath></defs></svg>